Coordinates
version=1
nRows=4
nColumns=53
inDegrees=yes

Units are S.I. units (second, meters, Newtons, ...)
Angles are in degrees.

endheader
time	pelvis_tilt	pelvis_list	pelvis_rot	pelvis_tx	pelvis_ty	pelvis_tz	hip_flex_r	hip_add_r	hip_rot_r	pf_flex_r	pf_rot_r	pf_tilt_r	pf_tx_r	pf_ty_r	pf_tz_r	knee_flex_r	knee_add_r	knee_rot_r	knee_tx_r	knee_ty_r	knee_tz_r	ankle_flex_r	subt_angle_r	mtp_angle_r	hip_flex_l	hip_add_l	hip_rot_l	pf_l_r3	pf_l_tx	pf_l_ty	knee_flex_l	ankle_flex_l	subt_angle_l	mtp_angle_l	lumbar_ext	lumbar_latbend	lumbar_rot	neck_ext	neck_latbend	neck_rot	arm_add_r	arm_flex_r	arm_rot_r	elbow_flex_r	pro_sup_r	wrist_flex_r	arm_add_l	arm_flex_l	arm_rot_l	elbow_flex_l	pro_sup_l	wrist_flex_l
      1.77000000	     -8.05030993	     -5.73418011	     -8.17866604	      0.69023562	      0.87383501	     -0.18134360	    -11.00768096	     10.31254383	     -1.80822161	      7.00477008	      0.78808169	     -2.45164200	      0.05305773	      0.00938458	      0.00522410	     -2.00590450	     -0.31057203	      0.26063568	      0.00138142	      0.00006789	     -0.00015944	     15.20027918	      5.73689662	      0.00000000	     29.66829618	      9.91599855	     -7.44606860	      0.06513700	      0.04435000	     -0.41871200	     -0.10517963	     -0.04030717	     -0.01954603	      0.00000000	     -9.61459006	      4.51157617	      7.34519035	     10.59164626	      0.00000000	      0.00000000	    -26.13922713	     28.43634419	     30.70947882	     32.33981988	     53.37842935	      0.00000000	    -13.17875075	    -14.76557838	     22.85400131	      8.56982562	     43.59747609	      0.00000000
      1.77500000	     -7.98732261	     -5.58355338	     -8.32321857	      0.69693019	      0.87265034	     -0.18143657	    -11.18228765	      9.98092806	     -1.78259698	      7.56452254	      0.74074015	     -2.62665293	      0.05312476	      0.00885197	      0.00515726	     -1.25975108	     -0.25520941	      0.32540058	      0.00154497	      0.00012610	     -0.00019924	     16.19690838	      5.83899400	      0.00000000	     29.79678651	      9.67303225	     -7.46586078	      0.06513700	      0.04435000	     -0.41871200	     -0.09784678	     -0.04299216	     -0.02696149	      0.00000000	     -9.75504322	      4.24204199	      7.46331182	     10.59473762	      0.00000000	      0.00000000	    -26.11508740	     28.39221900	     30.70153388	     32.15145135	     53.38501075	      0.00000000	    -13.19427750	    -15.02456014	     22.75638577	      8.47120110	     43.57792366	      0.00000000
      1.78000000	     -7.89779162	     -5.48352914	     -8.36806266	      0.70375891	      0.87151911	     -0.18168523	    -11.50393681	      9.72600816	     -1.74722973	      7.91554834	      0.71105185	     -2.73640386	      0.05316680	      0.00851796	      0.00511534	     -0.79183157	     -0.22049101	      0.36601523	      0.00164754	      0.00016260	     -0.00022421	     16.34758553	      5.85683778	      0.00000000	     29.90337046	      9.42498037	     -7.59844242	      0.06513700	      0.04435000	     -0.41871200	     -0.08903156	     -0.04480013	     -0.02894810	      0.00000000	     -9.85832146	      4.03959085	      7.54492300	     10.59546384	      0.00000000	      0.00000000	    -26.10649890	     28.32300275	     30.70715450	     32.08454293	     53.38493834	      0.00000000	    -13.20779986	    -15.20260707	     22.72654363	      8.41311711	     43.57244811	      0.00000000
      1.78500000	     -7.79723391	     -5.38310962	     -8.42956331	      0.71074443	      0.87044177	     -0.18190232	    -11.88865694	      9.47222682	     -1.69866565	      8.17788988	      0.68886409	     -2.81842697	      0.05319821	      0.00826834	      0.00508401	     -0.44212871	     -0.19454398	      0.39636887	      0.00172420	      0.00018987	     -0.00024286	     16.42068022	      5.84657875	      0.00000000	     29.94177027	      9.19300686	     -7.75648491	      0.06513700	      0.04435000	     -0.41871200	     -0.07992215	     -0.04634829	     -0.02974528	      0.00000000	     -9.81167841	      3.99582046	      7.67789312	     10.59571250	      0.00000000	      0.00000000	    -26.06336083	     28.30180206	     30.71649618	     32.06719982	     53.38522360	      0.00000000	    -13.20739376	    -15.34269147	     22.71378602	      8.37538453	     43.57015837	      0.00000000
